<?xml version="1.0" encoding="UTF-8"?>
<svg version="1.1" xmlns="http://www.w3.org/2000/svg" width="2740" height="815">
<path d="M0 0 C0.79761648 -0.00576922 1.59523296 -0.01153844 2.41701964 -0.01748249 C5.10071447 -0.03076065 7.78292162 -0.00825373 10.46654034 0.01396656 C12.40539056 0.01178692 14.34423936 0.00741039 16.28308028 0.00102073 C21.61930946 -0.01018334 26.95503886 0.00987322 32.29120433 0.03491104 C38.04236314 0.05646263 43.79349278 0.04919936 49.5446806 0.04539967 C59.51177261 0.04277533 69.47870123 0.05848978 79.44575214 0.08658886 C93.85648469 0.12718916 108.26713807 0.14024254 122.67792162 0.14652882 C146.05726902 0.15747744 169.43652927 0.19072419 192.81582928 0.23804188 C215.52936634 0.28395908 238.24288011 0.31937956 260.95645428 0.34058094 C262.00653616 0.34156739 262.00653616 0.34156739 263.07783183 0.34257376 C270.10802812 0.34916633 277.13822459 0.3555454 284.16842122 0.36176806 C298.48991261 0.37444933 312.81140248 0.3885556 327.13289165 0.40352345 C329.10590142 0.4055839 329.10590142 0.4055839 331.11876997 0.40768597 C374.43262587 0.45354468 417.74640729 0.5352649 461.06021404 0.61523914 C461.06021404 31.30523914 461.06021404 61.99523914 461.06021404 93.61523914 C335.66021404 93.61523914 210.26021404 93.61523914 81.06021404 93.61523914 C81.06021404 120.67523914 81.06021404 147.73523914 81.06021404 175.61523914 C206.46021404 175.61523914 331.86021404 175.61523914 461.06021404 175.61523914 C461.06021404 206.30523914 461.06021404 236.99523914 461.06021404 268.61523914 C335.66021404 268.61523914 210.26021404 268.61523914 81.06021404 268.61523914 C81.06021404 295.34523914 81.06021404 322.07523914 81.06021404 349.61523914 C206.46021404 349.61523914 331.86021404 349.61523914 461.06021404 349.61523914 C461.06021404 380.63523914 461.06021404 411.65523914 461.06021404 443.61523914 C401.65228294 443.65930352 342.24436301 443.69624608 282.83642047 443.7173698 C275.8279291 443.71986453 268.81943777 443.72245763 261.81094646 443.72510242 C261.11350872 443.72536394 260.41607098 443.72562546 259.69749876 443.7258949 C237.08209731 443.73442112 214.46670584 443.74944637 191.85131044 443.76783358 C167.95722271 443.78722519 144.06314203 443.79922903 120.16904658 443.80341613 C105.8507604 443.80616479 91.53250286 443.81485631 77.21422549 443.83107208 C67.4049566 443.84161757 57.59570258 443.84484531 47.78642843 443.8422419 C42.12111889 443.8409568 36.45585951 443.84297148 30.79055882 443.85365009 C25.60846947 443.86334691 20.42646427 443.86389736 15.24437114 443.85703693 C13.36542347 443.8561884 11.48647066 443.85875562 9.60753319 443.86500551 C7.06117314 443.87298585 4.51512021 443.86873332 1.96876526 443.8613348 C0.86462388 443.86921584 0.86462388 443.86921584 -0.26182339 443.8772561 C-4.23485834 443.85102036 -7.46582261 443.62818791 -10.93978596 441.61523914 C-13.56446209 438.22680611 -13.19365937 434.53987585 -13.19984818 430.39031029 C-13.20365385 429.65781546 -13.20745952 428.92532063 -13.21138051 428.17062899 C-13.22173134 425.70284045 -13.21778374 423.23528043 -13.21394062 420.76747608 C-13.21839112 418.98567127 -13.22370453 417.20386844 -13.22980934 415.42206854 C-13.24402206 410.51526393 -13.24565202 405.60852257 -13.24521244 400.70170033 C-13.24685773 395.41395032 -13.25991871 390.12622658 -13.27140522 384.83849049 C-13.29427504 373.27264516 -13.30217769 361.70681817 -13.30723166 350.1409533 C-13.31048582 342.92323136 -13.31700652 335.70551476 -13.32423306 328.48779583 C-13.34380013 308.51465145 -13.36020419 288.54151205 -13.36310959 268.56835747 C-13.36329716 267.2897477 -13.36348473 266.01113793 -13.36367798 264.69378242 C-13.36404424 262.1016022 -13.36440794 259.50942198 -13.36476909 256.91724176 C-13.3649519 255.6304349 -13.36513472 254.34362804 -13.36532307 253.01782703 C-13.36550362 251.72945501 -13.36568416 250.44108299 -13.36587019 249.11366939 C-13.36941402 228.22390831 -13.39644903 207.33425018 -13.43382096 186.44452483 C-13.47185912 165.01142332 -13.49126673 143.57837295 -13.4915691 122.14523691 C-13.49215462 110.10552883 -13.50070754 98.0659436 -13.52956676 86.02626705 C-13.55402042 75.77724371 -13.56140421 65.52838803 -13.54631924 55.27934343 C-13.53912612 50.04731006 -13.54011089 44.81560817 -13.56272984 39.58361149 C-13.58322355 34.79750056 -13.58080999 30.011978 -13.55985499 25.22587412 C-13.55634163 23.49105317 -13.56134756 21.75619059 -13.57555943 20.0214243 C-13.59359579 17.66889818 -13.58102385 15.31846973 -13.56061172 12.96600914 C-13.56142618 11.65776257 -13.56224064 10.349516 -13.56307977 9.0016256 C-12.136568 1.25131586 -7.10569208 -0.12624561 0 0 Z " fill="#1D3964" transform="translate(1437.9397859573364,186.38476085662842)"/>
<path d="M0 0 C1.19123242 -0.00173077 1.19123242 -0.00173077 2.40653014 -0.0034965 C5.09601404 -0.00616578 7.78543935 -0.00163844 10.47492027 0.00279331 C12.4111779 0.00235767 14.34743547 0.0014829 16.28369272 0.00020415 C21.6265196 -0.00204227 26.96932661 0.00198247 32.31215096 0.00698221 C38.06540745 0.01128443 43.81866274 0.00984045 49.57192039 0.00907993 C59.5471848 0.00855455 69.52244269 0.01170282 79.49770546 0.01731777 C93.92041699 0.02543087 108.34312535 0.0280478 122.76583891 0.02930576 C146.16344586 0.03149658 169.56104934 0.03814892 192.9586544 0.04760838 C215.6927037 0.05678897 238.42675206 0.06387447 261.16080284 0.06811619 C261.86125201 0.06824771 262.56170118 0.06837924 263.28337608 0.06851475 C270.3174114 0.06983324 277.35144673 0.07110906 284.38548206 0.07235361 C298.71532333 0.07489 313.04516454 0.07771125 327.37500572 0.08070469 C329.34925176 0.08111678 329.34925176 0.08111678 331.36338155 0.08153719 C374.71870852 0.09071189 418.07403252 0.10705536 461.42935753 0.12304783 C461.42935753 30.81304783 461.42935753 61.50304783 461.42935753 93.12304783 C336.02935753 93.12304783 210.62935753 93.12304783 81.42935753 93.12304783 C81.42935753 120.18304783 81.42935753 147.24304783 81.42935753 175.12304783 C206.82935753 175.12304783 332.22935753 175.12304783 461.42935753 175.12304783 C461.42935753 205.81304783 461.42935753 236.50304783 461.42935753 268.12304783 C336.02935753 268.12304783 210.62935753 268.12304783 81.42935753 268.12304783 C81.42935753 294.85304783 81.42935753 321.58304783 81.42935753 349.12304783 C206.82935753 349.12304783 332.22935753 349.12304783 461.42935753 349.12304783 C461.42935753 380.14304783 461.42935753 411.16304783 461.42935753 443.12304783 C402.02142654 443.18914439 342.61352068 443.24455823 283.20556395 443.27624382 C276.19707255 443.2799859 269.18858123 443.28387555 262.18008995 443.28784275 C261.48265221 443.28823503 260.78521447 443.2886273 260.06664225 443.28903147 C237.45123412 443.3018208 214.83584844 443.32435867 192.22045393 443.35193949 C168.32636648 443.3810269 144.43229489 443.39903266 120.53819007 443.40531331 C106.21988828 443.40943631 91.90165094 443.42247357 77.58336898 443.44679723 C67.77409608 443.46261548 57.96485665 443.46745708 48.15557192 443.46355196 C42.49023778 443.46162431 36.82501653 443.4646463 31.1597023 443.48066425 C25.97757948 443.49520958 20.79564597 443.49603522 15.61351462 443.48574451 C13.73456485 443.48447171 11.8556035 443.48832259 9.97667668 443.49769738 C7.43018655 443.5096685 4.8843874 443.50328963 2.33790874 443.49219131 C1.60181449 443.50007236 0.86572024 443.5079534 0.1073201 443.51607326 C-4.29319106 443.47248543 -7.08376089 442.84685824 -10.57064247 440.12304783 C-13.05745031 436.39283607 -12.8221572 434.49604405 -12.82511806 430.03678417 C-12.82832454 429.30713156 -12.83153102 428.57747895 -12.83483467 427.82571566 C-12.84318777 425.36156636 -12.83719196 422.89765677 -12.83133888 420.43350315 C-12.83435715 418.65668685 -12.83824499 416.87987185 -12.84293145 415.10305917 C-12.85326212 410.20538977 -12.85101679 405.30779314 -12.84675086 400.41011763 C-12.84429277 395.13394368 -12.85328635 389.85778768 -12.86078835 384.58162022 C-12.87356318 374.23907175 -12.87532556 363.89654922 -12.87298808 353.55399419 C-12.87120781 345.15021444 -12.87294831 336.74644258 -12.87721252 328.34266376 C-12.87780771 327.14833315 -12.8784029 325.95400254 -12.87901613 324.7234801 C-12.88022783 322.29748635 -12.88144197 319.87149261 -12.8826585 317.44549887 C-12.89354484 294.67416541 -12.89136642 271.90284675 -12.88527366 249.13151245 C-12.88010394 228.28374779 -12.89135945 207.43602985 -12.91037188 186.58827443 C-12.92972788 165.20040618 -12.93801019 143.81256005 -12.93424863 122.42468297 C-12.93233312 110.40958805 -12.934858 98.39453288 -12.94896317 86.37944508 C-12.96084948 76.15055395 -12.96231287 65.92172707 -12.950173 55.69283511 C-12.94426484 50.47101596 -12.94323813 45.24931447 -12.9551754 40.02750301 C-12.96596865 35.25072702 -12.96300958 30.47416785 -12.94891372 25.69740228 C-12.94624859 23.96592063 -12.94868975 22.23442235 -12.95664958 20.50295694 C-12.96669582 18.15537133 -12.95838555 15.80854818 -12.94537258 13.46099377 C-12.9454276 12.15524289 -12.94548261 10.84949201 -12.9455393 9.50417292 C-12.54466195 5.8887343 -11.75849381 3.99706907 -9.57064247 1.12304783 C-6.52080832 -0.40186925 -3.34561737 -0.01176281 0 0 Z " fill="#1D3964" transform="translate(221.57064247131348,186.87695217132568)"/>
<path d="M0 0 C41.13353514 38.96861223 53.52433097 98.53308912 67.29561615 151.03254318 C68.62020575 156.07963772 69.94832913 161.12580259 71.27587891 166.17211914 C74.00431521 176.54641765 76.72792765 186.92197794 79.45013428 197.2979126 C80.91715225 202.8894475 82.38541829 208.48065401 83.85400391 214.07177734 C95.04826403 256.69377962 106.16806582 299.33506758 117.2578125 341.984375 C117.547416 343.09804821 117.8370195 344.21172142 118.13539886 345.3591423 C119.80050946 351.76251295 121.46511019 358.16601575 123.12892532 364.56972313 C123.63607441 366.52152544 124.14333244 368.47329945 124.65070724 370.42504311 C125.34856383 373.10976325 126.0459351 375.79460899 126.74316406 378.47949219 C126.94458448 379.25404471 127.14600491 380.02859724 127.35352898 380.82662106 C127.72779715 382.26870742 128.10030241 383.71125283 128.47077179 385.15431976 C128.83779602 386.57587061 129.21200806 387.99557997 129.5923996 389.41361237 C130.49355411 392.84045854 131.0078125 395.66288337 131.0078125 399.234375 C95.6978125 399.234375 60.3878125 399.234375 24.0078125 399.234375 C22.05212636 393.36731658 20.26065315 387.66414475 18.79736328 381.68554688 C18.59610714 380.87622648 18.394851 380.06690609 18.18749619 379.23306084 C17.7517324 377.47878017 17.31761131 375.72409079 16.88497543 373.9690361 C16.1849676 371.12946991 15.48059761 368.29101539 14.775177 365.45278931 C13.75730122 361.35597318 12.7411179 357.2587428 11.72619629 353.16119385 C9.01796103 342.23182988 6.29149643 331.30700831 3.5625 320.3828125 C3.14753265 318.72156656 3.14753265 318.72156656 2.72418213 317.0267601 C-9.11666238 269.64705857 -21.44591719 222.39383393 -34.16230774 175.24178314 C-34.79031716 172.91267061 -35.41747442 170.58332986 -36.04455566 168.25396729 C-40.01546732 153.51544432 -44.05359308 138.80144811 -48.37109375 124.16015625 C-48.85120659 122.52797653 -48.85120659 122.52797653 -49.34101868 120.86282349 C-51.75647567 112.76648855 -54.50694973 104.94211238 -57.9921875 97.234375 C-58.46140625 96.18636719 -58.930625 95.13835937 -59.4140625 94.05859375 C-63.07059144 86.32287258 -67.53487194 78.55146041 -73.73046875 72.55078125 C-74.9921875 71.234375 -74.9921875 71.234375 -74.9921875 69.234375 C-75.57871094 68.96238281 -76.16523438 68.69039063 -76.76953125 68.41015625 C-78.94907083 67.25718364 -80.65128459 65.97995211 -82.5546875 64.421875 C-98.37651203 52.47537766 -119.20440105 51.21856074 -138.29785156 53.51123047 C-153.05211334 55.99374945 -166.12447331 64.30647886 -176.9921875 74.234375 C-177.77078125 74.93175781 -178.549375 75.62914062 -179.3515625 76.34765625 C-192.03786782 88.31215454 -200.53736736 104.15781089 -205.9206543 120.60424805 C-206.1767406 121.38104007 -206.4328269 122.15783209 -206.69667339 122.95816326 C-209.44494428 131.42910308 -211.71925156 140.0099969 -213.94921875 148.62890625 C-214.40913536 150.38700131 -214.86966474 152.14493617 -215.33074951 153.90272522 C-216.31389767 157.65445181 -217.29369456 161.40702994 -218.27078247 165.16033936 C-220.65300886 174.30869499 -223.05571796 183.45168234 -225.45733452 192.59496307 C-226.01386913 194.71393608 -226.57020953 196.83296011 -227.12635994 198.952034 C-233.18304499 222.02769352 -239.35142835 245.07274346 -245.5546875 268.109375 C-246.07044045 270.02538904 -246.58618753 271.94140466 -247.10192871 273.85742188 C-252.94705842 295.5689156 -258.81172052 317.27513778 -264.6796875 338.98046875 C-264.92877869 339.90185198 -265.17786987 340.82323521 -265.43450928 341.77253914 C-270.61368806 360.92830405 -275.80413766 380.08100862 -280.9921875 399.234375 C-316.6321875 399.234375 -352.2721875 399.234375 -388.9921875 399.234375 C-388.26786124 394.16409119 -387.36978928 389.51355878 -385.99291992 384.62768555 C-385.79036654 383.89530293 -385.58781315 383.1629203 -385.37912178 382.40834427 C-384.70598776 379.97812483 -384.0267727 377.54964756 -383.34765625 375.12109375 C-382.86571096 373.38485039 -382.38421008 371.64848362 -381.90312195 369.91200256 C-380.87260373 366.19482044 -379.83967153 362.47832124 -378.80487061 358.7623291 C-376.32045144 349.8385854 -373.85151671 340.91055288 -371.38204956 331.9826622 C-370.82073629 329.95340345 -370.25929335 327.92418056 -369.69772339 325.89499283 C-364.36038518 306.6077386 -359.08363489 287.30466359 -353.8671875 267.984375 C-353.66822498 267.24764557 -353.46926247 266.51091614 -353.26427078 265.75186157 C-346.55108214 240.88809327 -339.92665347 216.00080664 -333.32868958 191.10624313 C-332.62130347 188.43740382 -331.913639 185.76863843 -331.20593262 183.09988403 C-324.9396121 159.46746295 -324.9396121 159.46746295 -318.76455688 135.81108093 C-317.5051941 130.94868888 -316.2394284 126.08797181 -314.97381592 121.22720337 C-314.15888238 118.08275603 -313.35559935 114.93551162 -312.55322266 111.7878418 C-308.00482041 94.16946049 -302.28010276 76.90508442 -294.2421875 60.546875 C-293.73905029 59.51288574 -293.23591309 58.47889648 -292.7175293 57.41357422 C-285.70700375 43.29677173 -277.48233805 30.03099119 -266.9921875 18.234375 C-265.93644531 17.01621094 -265.93644531 17.01621094 -264.859375 15.7734375 C-232.89958 -20.53930449 -190.57185931 -41.88962852 -142.0859375 -45.58691406 C-88.14735805 -48.70268428 -40.74531663 -36.11153552 0 0 Z " fill="#1D3964" transform="translate(2398.9921875,230.765625)"/>
<path d="M0 0 C35.64 0 71.28 0 108 0 C117.03474387 33.00059075 125.99119994 66.02102875 134.875 99.0625 C135.13749542 100.03878231 135.39999084 101.01506462 135.67044067 102.02093124 C145.59732362 138.94670771 155.44292486 175.89396982 165.24564743 212.85288906 C166.44749257 217.38296968 167.65125332 221.91252416 168.85949707 226.44090271 C169.32674994 228.1923704 169.79399448 229.94384031 170.26123047 231.6953125 C170.48937565 232.55027345 170.71752083 233.40523439 170.9525795 234.28610325 C172.32902629 239.45313061 173.68622906 244.62478495 175.02868938 249.8007431 C175.8996355 253.15136007 176.78076888 256.49925107 177.66359138 259.84675598 C178.06742135 261.38783773 178.46680066 262.93009509 178.86096001 264.47367859 C186.15560695 293.01782544 200.38126382 319.90375829 226.3359375 335.4765625 C227.65464844 336.23066406 227.65464844 336.23066406 229 337 C229.77601563 337.46148438 230.55203125 337.92296875 231.3515625 338.3984375 C249.27070489 348.28692745 270.64817907 348.14808057 290 343 C298.16845897 340.39487231 304.6134768 336.6920663 311 331 C311.59167969 330.50113281 312.18335938 330.00226563 312.79296875 329.48828125 C325.15392779 318.25876011 332.90095649 300.37826366 337.75 284.70703125 C338.00114059 283.90230377 338.25228119 283.09757629 338.5110321 282.26846313 C342.01979745 270.86951976 345.13766525 259.3565891 348.27373505 247.85084534 C348.8225613 245.83810158 349.37261119 243.8256954 349.9229126 241.81335449 C358.34603396 210.99781063 366.44407061 180.09915719 374.4389267 149.17011261 C375.00693597 146.97317316 375.57534336 144.77633705 376.14385986 142.57952881 C383.92060711 112.5267367 391.6574877 82.46434113 399.16796875 52.34375 C399.37832449 51.50041674 399.58868023 50.65708347 399.80541039 49.78819466 C401.84521754 41.60889545 403.88110036 33.42865086 405.90434361 25.24523735 C406.63940708 22.27425966 407.37705481 19.30392732 408.11518288 16.33370972 C408.45774389 14.95215075 408.79900001 13.57026753 409.13889122 12.18804932 C409.60134884 10.30745586 410.06836148 8.42798424 410.53564453 6.54858398 C410.79588409 5.49493149 411.05612366 4.44127899 411.32424927 3.35569763 C412 1 412 1 413 0 C414.39143689 -0.09543095 415.78768367 -0.12188575 417.18238831 -0.12025452 C418.08407745 -0.12162918 418.9857666 -0.12300385 419.91477966 -0.12442017 C421.41018028 -0.11902725 421.41018028 -0.11902725 422.93579102 -0.11352539 C423.97956909 -0.11367142 425.02334717 -0.11381744 426.09875488 -0.1139679 C429.56715943 -0.11326826 433.03551103 -0.10547353 436.50390625 -0.09765625 C438.90144318 -0.09579225 441.2989805 -0.09436826 443.69651794 -0.09336853 C450.02095584 -0.08954194 456.34537094 -0.07971046 462.6697998 -0.06866455 C469.11775402 -0.05845345 475.56571191 -0.05387156 482.01367188 -0.04882812 C494.675791 -0.03808832 507.33789429 -0.02120119 520 0 C519.39742673 5.61282605 518.40062828 10.9121483 516.97241211 16.3684082 C516.76644535 17.17151397 516.56047859 17.97461973 516.34827042 18.80206203 C515.66278187 21.46956966 514.97013715 24.13516228 514.27734375 26.80078125 C513.78398895 28.71346431 513.29102279 30.62624765 512.79841614 32.53912354 C511.46361712 37.71630737 510.12218508 42.89175114 508.77922058 48.06682205 C507.93381497 51.32670947 507.09029791 54.58707962 506.24743652 57.84762573 C495.99482072 97.50835653 485.57481241 137.12431638 475.09260559 176.72488785 C471.6655472 189.67349442 468.25763501 202.62698725 464.8680687 215.58545876 C464.14864782 218.33582475 463.42887483 221.08609838 462.70901489 223.83634949 C459.99066217 234.22213453 459.99066217 234.22213453 457.27893066 244.60964966 C453.01244464 260.97410195 448.68961189 277.31845764 444.12109375 293.6015625 C443.93668795 294.26090475 443.75228214 294.920247 443.56228828 295.59956932 C432.97918869 333.36718913 417.41524101 367.71311676 391 397 C390.32453125 397.74894531 389.6490625 398.49789063 388.953125 399.26953125 C356.52627582 433.29000763 310.15623192 443.83717864 264.87890625 444.9296875 C214.30817465 445.9039867 170.1622581 427.3604614 133.28515625 393.5078125 C97.8827642 359.39176329 82.59649015 312.22200591 70.94978714 265.84607315 C69.29520362 259.27804449 67.60995104 252.71774476 65.9296875 246.15625 C65.63524215 245.00528304 65.63524215 245.00528304 65.3348484 243.83106422 C60.37595194 224.45650479 55.23510282 205.13094163 50.0625 185.8125 C49.82536537 184.92661194 49.58823074 184.04072388 49.34391022 183.12799072 C41.09768041 152.32959891 32.72837469 121.56492323 24.3125 90.8125 C24.04456257 89.83319645 23.77662514 88.8538929 23.50056839 87.84491348 C21.68640493 81.21495143 19.86970759 74.58568815 18.05078125 67.95703125 C17.80288408 67.0532757 17.55498692 66.14952015 17.29957771 65.21837807 C14.41861813 54.72063623 11.51002718 44.23113188 8.56396484 33.75146484 C8.28292373 32.75038917 8.00188261 31.74931349 7.7123251 30.71790218 C6.35988319 25.90097867 5.00364805 21.08519312 3.63996887 16.2714386 C3.15720484 14.55559548 2.67458656 12.83971134 2.19213867 11.1237793 C1.96878279 10.34111128 1.7454269 9.55844326 1.51530266 8.75205803 C0.67252759 5.74229711 0 3.14199841 0 0 Z " fill="#1D3964" transform="translate(794,185)"/>
</svg>
